<?xml version="1.0" encoding="UTF-8"?>
<svg xmlns="http://www.w3.org/2000/svg" version="1.1" viewBox="0 0 2000 2000">
  <defs>
    <style>
      .cls-1 {
        fill: #febd26;
      }

      .cls-2 {
        fill: #f79039;
      }
    </style>
  </defs>
  <!-- Generator: Adobe Illustrator 28.6.0, SVG Export Plug-In . SVG Version: 1.2.0 Build 709)  -->
  <g>
    <g id="Layer_1">
      <g>
        <g>
          <path class="cls-2" d="M132.79,1500.57c111.27-64.15,283.46-109.04,397.26-192.89,1.65-6.17,4.13-20.61,4.74-24.02-119.66,80.67-300.11,136.01-411.78,197.11,3.93,8.58,5.89,12.65,9.78,19.79Z"/>
          <path class="cls-2" d="M113.15,1458.19c113.12-58.01,300.06-111.65,424.2-191.62,1-6.98,1.57-15.27,2.19-22.05-128,80.17-319.53,133.59-436.28,189.89,3.96,9.54,5.94,14.4,9.89,23.78Z"/>
          <path class="cls-2" d="M540.08,1202.24c-136.13,84.39-313.4,124.4-456.53,187.4,3.91,7.94,5.88,12.33,9.83,21.39,118.5-53.95,316.23-103.69,447.08-184.98.4-10.2.05-14.04-.37-23.82Z"/>
          <path class="cls-2" d="M535.41,1160.69c-138.53,88.91-324.35,127.5-471.44,191.57,3.94,7.68,5.91,11.48,9.82,18.85,145.28-63.1,327.01-102.17,464.77-188.31-.74-7.5-1.94-14.85-3.15-22.11Z"/>
          <path class="cls-2" d="M524.05,1116.13c-137.61,93.61-334.11,129.9-479.84,197.21,3.95,7.77,5.93,11.71,9.88,19.52,147.24-70.64,338.39-102.23,476.68-193.49-1.85-7.95-4.35-15.55-6.72-23.24Z"/>
          <path class="cls-2" d="M508.69,1078.32c-135.82,96.11-341.01,130.39-484.11,197.42,3.89,7.15,5.85,10.86,9.78,18.41,144.4-67.86,345.04-103.5,481.94-198.55-2.22-5.87-5.11-11.54-7.61-17.27Z"/>
        </g>
        <g>
          <path class="cls-2" d="M1965,1186.27c-162.8-99.99-361.03,36.15-485.08,145.27-158.95,144.72-251.32,330.87-475.7,400.27,14.08-.32,20.05-.92,27.81-3.01,195.36-25.86,302.72-227.15,437.93-353.74,126.58-116.75,340.55-273.74,504.61-150.74-2.19-16.25-4.23-23.84-9.58-38.05Z"/>
          <path class="cls-2" d="M1217.02,1344.31c132.46-139.76,270.96-334.56,482.43-330.99-374.48-31.3-476.94,489.25-842.03,544.19-.99,5.17-1.97,12.26-2.3,17.38,164.85-32.43,251.43-113.65,361.9-230.58Z"/>
          <path class="cls-2" d="M1235.79,1377.91c144.33-149.35,314.47-377.52,542.73-347.22-15.03-5.01-22.81-7.2-38.67-10.71-361.44-18.78-498.15,506.05-885.9,576.61-.18,8.31-.54,17.09-.32,25.68,167.53-42.36,268.05-125.45,382.15-244.36Z"/>
          <path class="cls-2" d="M1259.47,1406.39c150.2-153.93,355.51-411.73,588.42-344.6-12.54-7.26-19.21-10.69-33.13-16.95-232.26-47.62-419.94,195.27-567.74,347.88-116.05,120.62-217.73,204.8-392.29,253.99.96,8.06.93,13.79,2.1,21.08,178.34-55.65,284.28-140.19,402.64-261.39Z"/>
          <path class="cls-2" d="M1295.67,1429.49c144.31-155.51,378.49-417.82,606.46-329.2-10.3-8.91-15.64-12.96-26.1-20.36-232.17-80.13-447.94,183.55-599.61,337.99-121.87,124.07-231.57,212.66-416.94,271.63,1.06,7.55,2.55,15.95,3.91,23.73-1.1-.21,2.8,1,5.2,1,197.78-58.79,304.75-155.27,427.08-284.8Z"/>
          <path class="cls-2" d="M1335.65,1450.8c130.1-154.74,397.16-407.71,612.84-297.66-7.74-12.32-12.18-18-21.58-28.55-27.27-12.52-56.52-19.86-86.42-21.21-161.51-5.84-326.9,129.07-436.76,241.64-150.26,158.51-253.4,307.66-487.31,379.53,19.42,3.22,29.27,4.39,47.24,5.85,175.78-57.2,264.28-158,371.99-279.59Z"/>
        </g>
        <g>
          <path class="cls-1" d="M943.48,889.6c-131.79,197.8-273.1,401.86-284.31,638.76.87,10.83,2.26,16.1,6.17,26.21,12.16-238.22,157.77-444.34,289.5-645.23-3.67-6.65-7.46-13.22-11.35-19.74Z"/>
          <path class="cls-1" d="M965.07,928.72c-130.79,202.36-277.78,411.33-287.14,650.08,6.01,9.25,9.51,13.65,16.71,21.9,3.96-238.97,152.36-446.42,281.51-649.1-3.51-7.76-7.27-15.28-11.08-22.87Z"/>
          <path class="cls-1" d="M731.8,1570.99c14.87-214.31,152.24-391.98,263.47-572.78-2.46-7.06-5.48-14.44-8.19-21.37-125.01,199.75-277.53,401.24-273.94,643.05,7.46,7.09,11.21,10.35,18,16.15-.75-21.69-.72-43.45.65-65.05Z"/>
          <path class="cls-1" d="M1003.21,1021.14c-117.46,192.5-259.28,390.22-255.12,628.99,7.37,5.95,11.36,9.09,19.73,15.25-11.64-233.74,123.95-432.68,242.48-620.54-2.3-9.26-4.38-14.63-7.09-23.7Z"/>
          <path class="cls-1" d="M813.18,1580.78c17.62-179.08,111.75-334.72,208.86-485.32-1.4-9.23-3.37-15.67-5.16-24.72-117.19,183.32-246.62,382.1-227.12,609.77,9.14,5.86,13.89,8.69,23.57,13.74-3.32-37.8-3.84-75.85-.14-113.46Z"/>
          <path class="cls-1" d="M856.82,1667.78c-11.18-88.48,7.51-180.33,40.75-266.59,45.51-118.08,111.67-219,132.05-252.38-.36-3.67-3.35-26.53-3.78-30.18-110.45,181.77-219.33,370.27-187.9,586.7,9.87,3.73,13.48,5.21,25.44,7.95-2.61-14.98-4.69-30.66-6.57-45.51Z"/>
        </g>
        <g>
          <path class="cls-2" d="M1045.29,1083.91c-70.85-364.59-446.72-582.86-793.89-638.51-8.2,8.11-12.1,12.35-19.33,21.2,365.9,46.79,759.24,292.59,797.56,682.21,8.39-15.55,12.47-23.13,20.27-37.89-1.41-9.02-2.9-18.08-4.61-27.01Z"/>
          <path class="cls-2" d="M1083.86,1037.27c-89-354.32-445.91-560.13-787.76-628.68-9.55,6.61-14.22,10.11-23.19,17.47,347.29,63.26,724.21,280.8,795.57,648.94,6.34-12.58,10.21-20.43,16.45-33.89-.34-1.29-.73-2.55-1.06-3.84Z"/>
          <path class="cls-2" d="M1098.85,950.13c-120.53-319.68-418.78-494.24-753.26-570.86-10.12,5.11-15.17,7.85-25.1,13.72,341.47,73.01,679.42,270.1,778.34,616.29,5-12.31,7.21-18.26,10.93-29.72-3.64-9.8-7.19-19.7-10.91-29.42Z"/>
          <path class="cls-2" d="M1110.34,880.36c-123.29-297.85-397.32-452.27-718.55-520.46-10.2,3.45-15,5.26-23.53,8.81,343.56,75.78,633.87,253.07,749.73,580.3,2.94-13.56,4.12-20.76,5.95-35.18-4.47-11.19-8.96-22.43-13.6-33.48Z"/>
          <path class="cls-2" d="M1127.67,843.07c-97.87-283.33-395.56-453.29-679.73-498.12-11.88,2.33-17.8,3.73-29.12,6.77,320.88,66.33,590.09,226.53,708.34,525.98.74-14.32.84-21.41.51-34.64Z"/>
          <path class="cls-2" d="M1125.52,812.34c-70.79-269.06-355.76-438.7-618.66-473.67-11.31-.02-17.23.37-29.11,1.68,269.65,41.58,552.09,203.94,647.77,471.99Z"/>
        </g>
        <g>
          <path class="cls-2" d="M1189.49,1164c54.22-132.43,135.99-229.24,266.08-253.52-6.24-4.78-12.39-9.64-18.38-14.7-124.83,27.58-218.59,131.41-262.38,267.37.62,12.61,1.11,18.76,2.4,30.89,3.99-10.05,8.09-20.2,12.28-30.04Z"/>
          <path class="cls-2" d="M1203.94,1201.66c49.33-143.25,135.55-244.37,295.82-260.83-7.76-4.86-15.43-9.89-22.99-15.12-159.64,19.82-247.8,149.11-295.51,298.17,1.95,11.77,3.08,17.58,5.66,29.14,5.32-17.24,10.92-34.53,17.02-51.36Z"/>
          <path class="cls-2" d="M1367.75,820.75c-3.06-4.42-6.04-8.92-8.87-13.49-81.32,28.34-147.67,82.84-176.84,181.4-1.7,11.35-2.42,16.72-3.65,27.32,36.12-104.98,104.78-164.44,189.36-195.24Z"/>
          <path class="cls-2" d="M1392.13,851.91c-4.48-5.11-8.81-10.34-12.98-15.68-89.95,31.6-162.43,94.3-203.27,205.99-.8,10.47-1.09,15.7-1.5,26.64,45.54-118.88,121.68-185.01,217.76-216.95Z"/>
          <path class="cls-2" d="M1181.96,1109.72c53.96-126.63,131.84-198.11,238.86-228.38-4.99-4.64-9.88-9.38-14.63-14.25-103.42,31.96-182.39,102.64-232.43,230.34-.08,12.01-.05,18.32.15,32.01,2.68-6.57,5.3-13.3,8.05-19.72Z"/>
          <path class="cls-2" d="M1518.52,952.13c-191.49,10.55-282.54,166.3-324.39,329.67,3.19,11.48,4.94,17.21,8.72,28.75,41.58-172.77,128.64-339.48,339.75-345.06-8.06-4.26-16.1-8.74-24.08-13.37Z"/>
        </g>
        <g>
          <path class="cls-1" d="M1532.29,937.82c-63.74-37.97-123.27-88.46-167.52-148.88-1.85,3.06-6.65,11.03-8.43,14.18,43.29,71.93,113.12,123.48,186.27,162.37,4.01-6.1,6.09-9.32,10.34-15.92-6.81-3.76-13.64-7.63-20.65-11.76Z"/>
          <path class="cls-1" d="M1548.48,900.34c-62.5-36.8-116.9-85.38-161.76-142.25-5.09,6.43-7.35,8.48-12.08,15.42,51.36,64.78,117.31,119.36,189.12,159.16,4.4-6.89,6.63-10.4,11.09-17.37-8.93-4.87-17.84-9.85-26.38-14.97Z"/>
          <path class="cls-1" d="M1565.61,863.85c-59.7-34.67-110.94-80.35-152.38-135.6-4.6,4.61-9.08,9.37-13.46,14.29,49.57,65.47,113.27,117.89,186.25,155.47,4.45-6.83,6.66-10.21,11.01-16.69-10.75-5.68-21.39-11.51-31.42-17.47Z"/>
          <path class="cls-1" d="M1581.54,827.43c-56.81-29.18-106.7-70.07-144.41-121.25-4.32,3.62-8.53,7.4-12.7,11.23,47.98,64.13,112.5,111.62,183.87,147.32,4.84-7.09,7.39-10.83,12.54-18.4-13.61-6.05-26.94-12.37-39.31-18.9Z"/>
          <path class="cls-1" d="M1614.36,794.87c-57.9-25.74-108.53-65.92-143.65-113.87-5.97,4.02-11.84,8.18-17.59,12.5,44.03,61.32,109.61,106.34,180.74,133.7,5.22-7.68,7.84-11.53,12.89-18.96-11.02-4.25-22.1-8.63-32.4-13.36Z"/>
          <path class="cls-1" d="M1503.91,660.64c-5.21,2.91-10.35,5.92-15.43,9.01,39.52,53.43,98.24,95.88,170.44,120.7,4.63-6.81,6.84-10.05,10.81-15.89-73.32-22.94-126.34-62.47-165.81-113.82Z"/>
        </g>
        <g>
          <path class="cls-2" d="M1337.9,689.07c152.41-154.69,366.24-196.08,567.16-272.71-3.94-7.68-5.91-11.48-9.82-18.85-202.7,71.83-410.59,120.32-565.45,270.84-.49,10.84-.37,16.68.42,28.5,2.54-2.65,5.14-5.17,7.69-7.78Z"/>
          <path class="cls-2" d="M1363.13,726.58c143.57-162.48,370.29-180.23,561.69-271.3-3.95-7.77-5.93-11.7-9.88-19.52-202.98,88.32-436.42,115.01-581.35,290.96,1.87,11.94,3.07,17.9,5.82,29.1,7.61-9.96,15.49-19.92,23.73-29.24Z"/>
          <path class="cls-2" d="M1846.03,287.84c-3.93-8.58-5.89-12.65-9.78-19.79-131.38,71.53-332.96,118.89-437.41,231.26-8.59,8.5-12.57,13.51-19.87,24.28,109.41-116.37,328.3-164.45,467.06-235.74Z"/>
          <path class="cls-2" d="M1362.06,572.44c145.4-119,332.08-165.38,503.72-238.23-3.96-9.54-5.94-14.4-9.89-23.78-166.16,77.93-349.18,126.66-493.55,241.96-5.99,12.12-8.66,18.47-13.3,31,4.3-3.73,8.66-7.35,13.03-10.95Z"/>
          <path class="cls-2" d="M1348.94,628.17c152.35-133.24,344.52-181.69,536.55-249.19-3.91-7.95-5.88-12.33-9.83-21.39-189.23,71.94-385.77,120.36-536.52,256.68-3.27,12.02-4.56,17.86-6.42,28.43,5.37-4.92,10.79-9.72,16.22-14.54Z"/>
          <path class="cls-2" d="M1934.68,474.47c-199.36,101.83-458.01,108.18-587.52,307.53,3.42,9.6,5.29,13.97,9.18,21.12,119.45-210.27,392.44-203.9,588.12-310.25-3.89-7.15-5.85-10.86-9.78-18.4Z"/>
        </g>
        <g>
          <path class="cls-1" d="M147.98,629.26c141.11,231.44,459.96,345.06,407.87,656.46-10.5,9.86-15.75,14.4-25.82,21.97,72.3-320.08-249.36-418.51-383.13-652.65-.5-6.6-.04-17.41,1.08-25.78Z"/>
          <path class="cls-1" d="M160.65,581.89c146.65,243.44,460.8,346.85,446.62,648.38-9.71,11.72-14.84,17.65-25.22,28.89,33.21-308.27-284.5-423.13-429.41-652.44,2.57-9.57,4.2-14.63,8.01-24.83Z"/>
          <path class="cls-1" d="M184.85,531.09c83.33,136.03,182.33,222.74,295.04,326.5,93.71,86.27,166.95,197.38,169.39,316.92-6.73,9.98-10.66,15.49-19.15,26.79-5.39-136.83-66.65-245.09-175.71-341.96-99.15-88.07-212.59-191.95-282.88-303.13,4.87-10.26,7.56-15.37,13.3-25.12Z"/>
          <path class="cls-1" d="M216.58,485.42c76.01,147.54,167.43,231.51,285.01,340.14,88.78,82.02,166.5,172.22,175.6,296.68-5.35,12.9-8.18,18.9-13.56,28.96-5.17-128.36-82.5-227.43-173.77-312.58-114.55-106.85-208.82-189.51-289.89-330.82,6.34-9.08,9.67-13.6,16.6-22.38Z"/>
          <path class="cls-1" d="M515.75,812.34c85.37,77.07,160.63,156.71,174.07,275.43,4.63-14.47,6.74-22.05,9.96-36.83-14.54-110.82-91.48-177.9-170.82-247.14-120.89-105.51-206.51-188.05-267.94-333.07-9.59-1.5-19.18-2.89-28.74-4.11,68.66,153.14,162.58,236.57,283.48,345.72Z"/>
          <path class="cls-1" d="M232.07,466.19c.04.09.08.17.12.26,1.34-1.64,2.5-3.02,3.66-4.4-1.2,1.3-2.38,2.59-3.79,4.14Z"/>
          <path class="cls-1" d="M545.92,794.88c73.32,62.71,143.56,117.66,159.43,220.02,1.12-13.84,1.13-20.47-.53-32.1-13.49-93.11-80.52-145.09-146.89-201.28-116.14-98.32-196.16-171.77-243.01-300.99-7.75-1.61-15.5-3.12-23.25-4.56,53.68,135.84,136.54,218.24,254.26,318.91Z"/>
          <path class="cls-1" d="M232.07,466.6c.07,0,.14.02.2.03-.03-.06-.05-.11-.08-.17-.04.05-.08.09-.12.15Z"/>
        </g>
        <g>
          <path class="cls-1" d="M1304.82,1219.73c4.45-4.88,8.82-9.66,13.3-14.47-20.63-15.29-41.27-31.87-60.98-49.32-3.1,6.16-6.05,12.44-8.93,18.77,18.28,15.92,37.52,30.96,56.61,45.03Z"/>
          <path class="cls-1" d="M1541.21,1313.82c-6.81,5.42-13.53,10.86-20.07,16.3,117.59,30.26,224.57-3.94,281.57-147.76-7.23,1.02-14.46,2.29-21.7,3.84-51.44,116.21-140.28,147.17-239.8,127.61Z"/>
          <path class="cls-1" d="M1508.95,1340.42c-5.9,5.05-11.65,10.07-17.29,15.06,147.94,44.41,284.96,8.23,351.31-175.88-6.64-.07-13.31.18-19.98.63-61.54,163.55-182.31,197.14-314.04,160.19Z"/>
          <path class="cls-1" d="M1239.32,1195.16c-2.4,5.75-5.38,13.63-7.61,19.48,15.44,12.7,29.87,23.9,45.8,35.51,4.1-4.59,9.77-11,13.88-15.55-17.79-12.57-34.93-25.19-52.07-39.43Z"/>
          <path class="cls-1" d="M1261.65,1268.46c-13.69-9.91-24.91-19.58-38.28-30.17-2.72,7.9-5.16,16.2-7.63,24.22,10.95,8.23,19.57,15.31,30.72,23.11,5.07-5.73,10.13-11.45,15.19-17.16Z"/>
          <path class="cls-1" d="M1474.64,1370.79c-1.55,1.42-3.15,2.86-4.68,4.27-3.85,3.61-7.68,7.29-11.49,11.02,177.8,55.31,347.08,13.7,420.81-203.25-5.83-1-11.69-1.79-17.57-2.32-70.52,200.64-223.93,240.06-387.06,190.28Z"/>
          <path class="cls-1" d="M1443.42,1401.16c-5.68,5.83-11.32,11.78-16.94,17.8,204.93,65.6,411,14.15,489.02-226.55-6.2-2.22-12.44-4.19-18.73-5.81-76.05,229.5-261.46,274.47-453.35,214.56Z"/>
          <path class="cls-1" d="M1208.97,1286.28c-1.96,7.07-4.33,17.16-6.12,24.27,5.41,4.1,7.55,4.5,13.07,8.49,4.7-5.25,10.9-11.7,15.57-16.97-8.37-5.76-14.32-9.78-22.52-15.79Z"/>
          <path class="cls-1" d="M1412.38,1434.3c-5.49,6.06-10.97,12.17-16.43,18.35,225.26,86.9,477.22,22.79,553.77-244.45-5.39-3.06-10.81-5.87-16.29-8.41-79.01,258.69-304.08,309.3-521.05,234.5Z"/>
          <path class="cls-1" d="M1963.79,1216.88c-71.73,263.4-356.62,359.95-585.13,255.52-4.4,5.06-8.79,10.12-13.19,15.21,228.31,122.06,551.26,3.7,609.1-263.28-2.63-3.6-7.18-5.04-10.78-7.45Z"/>
        </g>
      </g>
    </g>
  </g>
</svg>